<?xml version="1.0" encoding="utf-8"?>
<!-- Generator: Adobe Illustrator 24.1.2, SVG Export Plug-In . SVG Version: 6.00 Build 0)  -->
<svg version="1.1"
	 id="svg3991" xmlns:cc="http://creativecommons.org/ns#" xmlns:dc="http://purl.org/dc/elements/1.1/" xmlns:rdf="http://www.w3.org/1999/02/22-rdf-syntax-ns#" xmlns:svg="http://www.w3.org/2000/svg"
	 xmlns="http://www.w3.org/2000/svg" xmlns:xlink="http://www.w3.org/1999/xlink" x="0px" y="0px" viewBox="0 0 320 320"
	 style="enable-background:new 0 0 320 320;" xml:space="preserve">
<style type="text/css">
	.st0{fill:#543224;}
	.st1{fill:#FFCE00;}
	.st2{fill:#FFDD15;}
	.st3{fill:#CC8A1F;}
	.st4{fill:#F4AD21;}
	.st5{fill:#FFF100;}
	.st6{fill:#FFFFFF;}
</style>
<symbol  id="Star" viewBox="-160 -153.5 320 307.1">
	<path id="path4011_4_" class="st0" d="M81.4-153.5c-6.1,0-12.5,1.7-19,5.2L0-115.1l-62.4-33.2c-6.5-3.4-12.9-5.2-19-5.2
		c-8.6,0-16.2,3.5-21.6,9.7c-4.3,5.1-9,14.4-6.5,29.3l11.8,70.3l-50.1,48.5c-10.6,10.2-14.6,22.6-11,34c3.6,11.3,14,19.1,28.5,21.4
		l69.9,10.9l31.2,62.4c6.6,13.1,17.2,20.7,29.1,20.7s22.5-7.5,29.1-20.7l31.2-62.4l69.9-10.9c14.5-2.3,24.9-10.1,28.5-21.4
		c3.6-11.3-0.4-23.7-11-33.9L97.6-44.2l11.8-70.3c2.5-14.9-2.1-24.2-6.5-29.3C97.6-150.1,90-153.5,81.4-153.5"/>
	<path id="path4015_4_" class="st1" d="M12.9,124.8l35.4-70.7l79.1-12.3c15.8-2.5,19.3-13.4,7.8-24.5l-57-55.1l13.4-79.7
		c2.6-15.7-6.6-22.4-20.7-14.9L0-94.7l-70.9-37.8c-14.1-7.5-23.4-0.8-20.7,14.9l13.4,79.7l-57,55.1c-11.5,11.1-8,22.1,7.8,24.5
		l79.1,12.3l35.4,70.7C-5.8,139.1,5.8,139.1,12.9,124.8"/>
	<path id="path4019_4_" class="st2" d="M78.2-37.8l13.4-79.7"/>
	<path id="path4023_4_" class="st3" d="M66.6-34l49.9,48.3C37.5,21-30.7,5.5-84.7-16.5L-66.6-34l-14.3-85.3
		c-0.5-2.9,2.3-4.9,4.9-3.5L0-82.4l76-40.5c2.6-1.4,5.4,0.7,4.9,3.5L66.6-34z"/>
	<path id="path4027_4_" class="st4" d="M-84.7-16.5L-66.6-34l-5-29.6c33,14.5,86.6,30.1,144.7,36l43.3,41.9
		C37.5,21-30.7,5.5-84.7-16.5"/>
	<path id="path4031_4_" class="st5" d="M-84.7-16.5C-30.7,5.5,37.5,21,116.5,14.2L127.6,25c2.2,2.1,1.1,5.6-1.9,6L41.1,44.2L36.8,53
		c-52.4-4.8-97.7-19.8-148.1-43.7L-84.7-16.5z"/>
	<path id="path4035_4_" class="st5" d="M-72.4-123.3c0-4.2-3.7-7.7-8.2-7.7c-4.6,0-8.2,3.4-8.2,7.7s3.7,7.7,8.2,7.7
		C-76.1-115.6-72.4-119-72.4-123.3"/>
	<path id="path4039_4_" class="st6" d="M-2.2,126.9c-3.8,0-27-52.7-39.4-71.2c-0.5,0.1-1,0.1-1.5,0.1c-5.3,0-9.6-3.8-10.1-8.6
		c-17.4-4.8-58.8-9.5-78.2-13.5c0.3-6.3,58.8-0.3,82.2,5c1.7-1.2,3.9-2,6.2-2c5.6,0,10.2,4.2,10.2,9.5c0,1.3-0.3,2.5-0.8,3.6
		C-19.6,71.9,3.7,127.4-2.2,126.9"/>
</symbol>
<use xlink:href="#Star"  width="320" height="307.1" x="-160" y="-153.5" transform="matrix(1 0 0 -1 160 160)" style="overflow:visible;"/>
</svg>
