<svg id="svg3991" xmlns="http://www.w3.org/2000/svg" xmlns:xlink="http://www.w3.org/1999/xlink" viewBox="0 0 320 307.1"><defs><style>.cls-1{fill:#543224;}.cls-2{fill:#ffce00;}.cls-3{fill:#ffdd15;}.cls-4{fill:#cc8a1f;}.cls-5{fill:#f4ad21;}.cls-6{fill:#fff100;}.cls-7{fill:#fff;}</style><symbol id="Star" data-name="Star" viewBox="0 0 320 307.1"><path id="path4011" class="cls-1" d="M241.37,307.1a40.49,40.49,0,0,1-19-5.2L160,268.66,97.62,301.9a40.49,40.49,0,0,1-19,5.2,27.7,27.7,0,0,1-21.56-9.74c-4.33-5.12-9-14.37-6.47-29.31l11.83-70.28L12.28,149.29c-10.58-10.23-14.59-22.6-11-33.95s14-19.15,28.55-21.41L99.7,83.06l31.22-62.38C137.49,7.54,148.09,0,160,0s22.51,7.54,29.08,20.68L220.3,83.06l69.86,10.87c14.55,2.26,24.95,10.07,28.55,21.41s-.41,23.72-11,33.95l-50.15,48.48,11.82,70.28c2.52,14.94-2.13,24.18-6.46,29.31a27.7,27.7,0,0,1-21.56,9.74"/><path id="path4015" class="cls-2" d="M172.93,28.76l35.39,70.72,79.07,12.3c15.77,2.45,19.25,13.43,7.78,24.53l-57,55.08L251.58,271c2.65,15.74-6.62,22.42-20.71,14.91L160,248.2,89.13,286C75,293.46,65.77,286.78,68.42,271l13.39-79.65-57-55.08c-11.47-11.1-8-22.08,7.78-24.53l79.07-12.3,35.39-70.72c7.14-14.27,18.72-14.27,25.86,0"/><path id="path4019" class="cls-3" d="M238.19,191.39,251.58,271"/><path id="path4023" class="cls-4" d="M226.56,187.56l49.91-48.25A431.24,431.24,0,0,0,75.35,170.07l18.1,17.49L79.1,272.84A3.33,3.33,0,0,0,84,276.39l76-40.47,76,40.47a3.33,3.33,0,0,0,4.93-3.55Z"/><path id="path4027" class="cls-5" d="M75.35,170.07l18.1,17.49-5,29.62c33-14.48,86.61-30.09,144.7-36l43.31-41.87A431.24,431.24,0,0,0,75.35,170.07"/><path id="path4031" class="cls-6" d="M75.35,170.07a431.24,431.24,0,0,1,201.12-30.76l11.16-10.79a3.46,3.46,0,0,0-1.91-6l-84.59-13.16-4.37-8.75c-52.39,4.81-97.67,19.81-148.08,43.71Z"/><path id="path4035" class="cls-6" d="M87.58,276.83a8.26,8.26,0,1,1-8.24-7.68,8,8,0,0,1,8.24,7.68"/><path id="path4039" class="cls-7" d="M157.75,26.69c-3.84,0-27,52.7-39.43,71.23a10.59,10.59,0,0,0-1.5-.12c-5.28,0-9.63,3.75-10.13,8.56-17.36,4.84-58.76,9.49-78.22,13.5.3,6.25,58.76.34,82.17-5a10.65,10.65,0,0,0,6.18,2c5.62,0,10.18-4.25,10.18-9.49a9,9,0,0,0-.77-3.62c14.22-22,37.51-77.46,31.52-77"/></symbol></defs><use width="320" height="307.1" xlink:href="#Star"/></svg>