<?xml version="1.0" encoding="utf-8"?>
<!-- Generator: Adobe Illustrator 24.1.2, SVG Export Plug-In . SVG Version: 6.00 Build 0)  -->
<svg version="1.1" id="Layer_1" xmlns="http://www.w3.org/2000/svg" xmlns:xlink="http://www.w3.org/1999/xlink" x="0px" y="0px"
	 viewBox="0 0 81 81" style="enable-background:new 0 0 81 81;" xml:space="preserve">
<style type="text/css">
	.st0{display:none;}
	.st1{display:inline;fill:url(#path7306_9_);}
	.st2{display:inline;fill:url(#path7360_9_);}
	.st3{display:inline;fill:url(#path7306_10_);}
	.st4{display:inline;fill:url(#path7360_10_);}
	.st5{display:inline;fill:url(#path7306_11_);}
	.st6{display:inline;fill:url(#path7360_11_);}
	.st7{display:inline;fill:url(#path7306_12_);}
	.st8{display:inline;fill:url(#path7360_12_);}
	.st9{display:inline;fill:url(#path7306_13_);}
	.st10{display:inline;fill:url(#path7360_13_);}
	.st11{display:inline;fill:url(#path7306_14_);}
	.st12{display:inline;fill:url(#path7360_14_);}
	.st13{display:inline;fill:url(#path7306_15_);}
	.st14{display:inline;fill:url(#path7360_15_);}
	.st15{fill:url(#path7306_16_);}
	.st16{fill:url(#path7360_16_);}
</style>
<symbol  id="Gold" viewBox="-40.1 -40.5 79.8 80.6">
	<g id="Purple_3_" class="st0">
		
			<radialGradient id="path7306_9_" cx="2603.5569" cy="-15466.0068" r="39.7815" gradientTransform="matrix(1.5041 -1.516393e-02 -1.136501e-02 -1.1275 -4104.9985 -17385.8691)" gradientUnits="userSpaceOnUse">
			<stop  offset="0" style="stop-color:#FFFFFF"/>
			<stop  offset="0.3449" style="stop-color:#FFFFFF"/>
			<stop  offset="0.5052" style="stop-color:#665BDF"/>
			<stop  offset="0.6395" style="stop-color:#4634D2"/>
			<stop  offset="0.7521" style="stop-color:#4532CF"/>
			<stop  offset="1" style="stop-color:#7562EC"/>
		</radialGradient>
		<path id="path7306_32_" class="st1" d="M39.7,0.6c0-21.8-17.7-39.4-39.4-39.4S-39.2-21.2-39.2,0.6S-21.6,40,0.2,40
			S39.7,22.3,39.7,0.6z"/>
		
			<radialGradient id="path7360_9_" cx="1532.3992" cy="-14844.8066" r="35.6301" gradientTransform="matrix(1.262 0 0 -1.2741 -1933.9871 -18913.8438)" gradientUnits="userSpaceOnUse">
			<stop  offset="0" style="stop-color:#6640FA;stop-opacity:0"/>
			<stop  offset="0.7183" style="stop-color:#6657FF;stop-opacity:0.16"/>
			<stop  offset="0.8239" style="stop-color:#6674ED"/>
			<stop  offset="0.8651" style="stop-color:#6630ED"/>
			<stop  offset="0.9991" style="stop-color:#A832DB"/>
			<stop  offset="1" style="stop-color:#6600F4"/>
		</radialGradient>
		<path id="path7360_32_" class="st2" d="M39.4-0.2C39.6-22,22-39.9,0.2-40c-21.8-0.1-39.7,17.4-39.8,39.3c0,0.2,0,0.3,0,0.5
			c-0.1,21.8,17.4,39.7,39.3,39.8S39.3,22.2,39.4,0.3C39.4,0.2,39.4,0,39.4-0.2z"/>
	</g>
	<g id="Magenta_3_" class="st0">
		
			<radialGradient id="path7306_10_" cx="2603.6038" cy="-15466.0703" r="39.7815" gradientTransform="matrix(1.5041 -1.516393e-02 -1.136501e-02 -1.1275 -4104.9985 -17385.8691)" gradientUnits="userSpaceOnUse">
			<stop  offset="0" style="stop-color:#FFFFFF"/>
			<stop  offset="0.3449" style="stop-color:#FFFFFF"/>
			<stop  offset="0.5052" style="stop-color:#B85BDF"/>
			<stop  offset="0.6395" style="stop-color:#A01BD2"/>
			<stop  offset="0.7521" style="stop-color:#9D32CF"/>
			<stop  offset="1" style="stop-color:#E462EC"/>
		</radialGradient>
		<path id="path7306_30_" class="st3" d="M39.7,0.6c0-21.8-17.7-39.4-39.4-39.4S-39.2-21.1-39.2,0.6s17.7,39.4,39.4,39.4
			S39.7,22.4,39.7,0.6z"/>
		
			<radialGradient id="path7360_10_" cx="1532.4556" cy="-14844.8623" r="35.6301" gradientTransform="matrix(1.262 0 0 -1.2741 -1933.9871 -18913.8438)" gradientUnits="userSpaceOnUse">
			<stop  offset="0" style="stop-color:#BD40FA;stop-opacity:0"/>
			<stop  offset="0.7183" style="stop-color:#B857FF;stop-opacity:0.16"/>
			<stop  offset="0.8239" style="stop-color:#B674ED"/>
			<stop  offset="0.8651" style="stop-color:#A830ED"/>
			<stop  offset="0.9991" style="stop-color:#A832DB"/>
			<stop  offset="1" style="stop-color:#A800F4"/>
		</radialGradient>
		<path id="path7360_30_" class="st4" d="M39.5-0.1C39.7-22,22.1-39.8,0.2-39.9c-21.8-0.1-39.7,17.4-39.8,39.3c0,0.2,0,0.3,0,0.5
			c-0.1,21.8,17.4,39.7,39.3,39.8c21.8,0.1,39.7-17.4,39.8-39.3C39.5,0.2,39.5,0,39.5-0.1z"/>
	</g>
	<g id="Teal_3_" class="st0">
		
			<radialGradient id="path7306_11_" cx="2603.6074" cy="-15465.5996" r="39.7815" gradientTransform="matrix(1.5041 -1.516393e-02 -1.136501e-02 -1.1275 -4104.9985 -17385.8691)" gradientUnits="userSpaceOnUse">
			<stop  offset="0" style="stop-color:#FFFFFF"/>
			<stop  offset="0.3449" style="stop-color:#FFFFFF"/>
			<stop  offset="0.5052" style="stop-color:#5BDFB8"/>
			<stop  offset="0.6395" style="stop-color:#1BD2A0"/>
			<stop  offset="0.7521" style="stop-color:#32CF9D"/>
			<stop  offset="1" style="stop-color:#62ECE4"/>
		</radialGradient>
		<path id="path7306_29_" class="st5" d="M39.7,0.1c0-21.8-17.7-39.4-39.4-39.4S-39.2-21.7-39.2,0.1s17.7,39.4,39.4,39.4
			S39.7,21.9,39.7,0.1z"/>
		
			<radialGradient id="path7360_11_" cx="1532.4556" cy="-14844.4463" r="35.6301" gradientTransform="matrix(1.262 0 0 -1.2741 -1933.9871 -18913.8438)" gradientUnits="userSpaceOnUse">
			<stop  offset="0" style="stop-color:#40FABD;stop-opacity:0"/>
			<stop  offset="0.7183" style="stop-color:#57FFB8;stop-opacity:0.16"/>
			<stop  offset="0.8239" style="stop-color:#74EDB6"/>
			<stop  offset="0.8651" style="stop-color:#30EDA8"/>
			<stop  offset="1" style="stop-color:#00F4A8"/>
			<stop  offset="1" style="stop-color:#32DBA8"/>
		</radialGradient>
		<path id="path7360_29_" class="st6" d="M39.5-0.7c0.1-21.8-17.4-39.7-39.3-39.8C-21.6-40.6-39.4-23-39.6-1.2c0,0.2,0,0.3,0,0.5
			C-39.7,21.2-22.1,39-0.3,39.1c21.8,0.1,39.7-17.4,39.8-39.3C39.5-0.3,39.5-0.5,39.5-0.7z"/>
	</g>
	<g id="Gold_4_" class="st0">
		
			<radialGradient id="path7306_12_" cx="2603.6038" cy="-15466.0703" r="39.7815" gradientTransform="matrix(1.5041 -1.516393e-02 -1.136501e-02 -1.1275 -4104.9985 -17385.8691)" gradientUnits="userSpaceOnUse">
			<stop  offset="0" style="stop-color:#FFFFFF"/>
			<stop  offset="0.3449" style="stop-color:#FFFFFF"/>
			<stop  offset="0.5052" style="stop-color:#DFB85B"/>
			<stop  offset="0.6395" style="stop-color:#E6B42F"/>
			<stop  offset="0.7521" style="stop-color:#E4B247"/>
			<stop  offset="1" style="stop-color:#ECE462"/>
		</radialGradient>
		<path id="path7306_28_" class="st7" d="M39.7,0.6c0-21.8-17.7-39.4-39.4-39.4S-39.2-21.1-39.2,0.6s17.7,39.4,39.4,39.4
			S39.7,22.4,39.7,0.6z"/>
		
			<radialGradient id="path7360_12_" cx="1532.4556" cy="-14844.8623" r="35.6301" gradientTransform="matrix(1.262 0 0 -1.2741 -1933.9871 -18913.8438)" gradientUnits="userSpaceOnUse">
			<stop  offset="0" style="stop-color:#FABD40;stop-opacity:0"/>
			<stop  offset="0.7183" style="stop-color:#FFB857;stop-opacity:0.1569"/>
			<stop  offset="0.8239" style="stop-color:#EDB674"/>
			<stop  offset="0.8651" style="stop-color:#EDA830"/>
			<stop  offset="1" style="stop-color:#DBA832"/>
			<stop  offset="1" style="stop-color:#F4A800"/>
		</radialGradient>
		<path id="path7360_28_" class="st8" d="M39.5-0.1C39.7-22,22.1-39.8,0.2-39.9c-21.8-0.1-39.7,17.4-39.8,39.3c0,0.2,0,0.3,0,0.5
			c-0.1,21.8,17.4,39.7,39.3,39.8c21.8,0.1,39.7-17.4,39.8-39.3C39.5,0.2,39.5,0,39.5-0.1z"/>
	</g>
	<g id="Blue_2_" class="st0">
		
			<radialGradient id="path7306_13_" cx="2603.6038" cy="-15466.0703" r="39.7815" gradientTransform="matrix(1.5041 -1.516393e-02 -1.136501e-02 -1.1275 -4104.9985 -17385.8691)" gradientUnits="userSpaceOnUse">
			<stop  offset="0" style="stop-color:#FFFFFF"/>
			<stop  offset="0.3449" style="stop-color:#FFFFFF"/>
			<stop  offset="0.5052" style="stop-color:#5B98DF"/>
			<stop  offset="0.6395" style="stop-color:#1B6CD5"/>
			<stop  offset="0.7521" style="stop-color:#2769B0"/>
			<stop  offset="1" style="stop-color:#6288EC"/>
		</radialGradient>
		<path id="path7306_27_" class="st9" d="M39.7,0.6c0-21.8-17.7-39.4-39.4-39.4S-39.2-21.1-39.2,0.6s17.7,39.4,39.4,39.4
			S39.7,22.4,39.7,0.6z"/>
		
			<radialGradient id="path7360_13_" cx="1532.4556" cy="-14844.8623" r="35.6301" gradientTransform="matrix(1.262 0 0 -1.2741 -1933.9871 -18913.8438)" gradientUnits="userSpaceOnUse">
			<stop  offset="0" style="stop-color:#409AFA;stop-opacity:0"/>
			<stop  offset="0.7183" style="stop-color:#57BAFF;stop-opacity:0.16"/>
			<stop  offset="0.8239" style="stop-color:#74BFED"/>
			<stop  offset="0.8651" style="stop-color:#3094ED"/>
			<stop  offset="0.9991" style="stop-color:#3281DB"/>
			<stop  offset="1" style="stop-color:#0075F4"/>
		</radialGradient>
		<path id="path7360_27_" class="st10" d="M39.5-0.1C39.7-22,22.1-39.8,0.2-39.9c-21.8-0.1-39.7,17.4-39.8,39.3c0,0.2,0,0.3,0,0.5
			c-0.1,21.8,17.4,39.7,39.3,39.8c21.8,0.1,39.7-17.4,39.8-39.3C39.5,0.2,39.5,0,39.5-0.1z"/>
	</g>
	<g id="Lime_2_" class="st0">
		
			<radialGradient id="path7306_14_" cx="2603.6038" cy="-15466.0703" r="39.7815" gradientTransform="matrix(1.5041 -1.516393e-02 -1.136501e-02 -1.1275 -4104.9985 -17385.8691)" gradientUnits="userSpaceOnUse">
			<stop  offset="0" style="stop-color:#FFFFFF"/>
			<stop  offset="0.3449" style="stop-color:#FFFFFF"/>
			<stop  offset="0.5052" style="stop-color:#6CDF5B"/>
			<stop  offset="0.6395" style="stop-color:#2ED21B"/>
			<stop  offset="0.7521" style="stop-color:#4ACF32"/>
			<stop  offset="1" style="stop-color:#62EC71"/>
		</radialGradient>
		<path id="path7306_26_" class="st11" d="M39.7,0.6c0-21.8-17.7-39.4-39.4-39.4S-39.2-21.1-39.2,0.6s17.7,39.4,39.4,39.4
			S39.7,22.4,39.7,0.6z"/>
		
			<radialGradient id="path7360_14_" cx="1532.4556" cy="-14844.8623" r="35.6301" gradientTransform="matrix(1.262 0 0 -1.2741 -1933.9871 -18913.8438)" gradientUnits="userSpaceOnUse">
			<stop  offset="0" style="stop-color:#5EFA40;stop-opacity:0"/>
			<stop  offset="0.7183" style="stop-color:#82FF57;stop-opacity:0.16"/>
			<stop  offset="0.8239" style="stop-color:#97ED74"/>
			<stop  offset="0.8651" style="stop-color:#55ED30"/>
			<stop  offset="0.9991" style="stop-color:#49DB32"/>
			<stop  offset="1" style="stop-color:#23F400"/>
		</radialGradient>
		<path id="path7360_26_" class="st12" d="M39.5-0.1C39.7-22,22.1-39.8,0.2-39.9c-21.8-0.1-39.7,17.4-39.8,39.3c0,0.2,0,0.3,0,0.5
			c-0.1,21.8,17.4,39.7,39.3,39.8c21.8,0.1,39.7-17.4,39.8-39.3C39.5,0.2,39.5,0,39.5-0.1z"/>
	</g>
	<g id="Red_3_" class="st0">
		
			<radialGradient id="path7306_15_" cx="2603.6038" cy="-15466.0703" r="39.7815" gradientTransform="matrix(1.5041 -1.516393e-02 -1.136501e-02 -1.1275 -4104.9985 -17385.8691)" gradientUnits="userSpaceOnUse">
			<stop  offset="0" style="stop-color:#FFFFFF"/>
			<stop  offset="0.3449" style="stop-color:#FFFFFF"/>
			<stop  offset="0.5052" style="stop-color:#DF765B"/>
			<stop  offset="0.6395" style="stop-color:#D2451B"/>
			<stop  offset="0.7521" style="stop-color:#CF4E32"/>
			<stop  offset="1" style="stop-color:#EC9F62"/>
		</radialGradient>
		<path id="path7306_25_" class="st13" d="M39.7,0.6c0-21.8-17.7-39.4-39.4-39.4S-39.2-21.1-39.2,0.6s17.7,39.4,39.4,39.4
			S39.7,22.4,39.7,0.6z"/>
		
			<radialGradient id="path7360_15_" cx="1532.4556" cy="-14844.8623" r="35.6301" gradientTransform="matrix(1.262 0 0 -1.2741 -1933.9871 -18913.8438)" gradientUnits="userSpaceOnUse">
			<stop  offset="0" style="stop-color:#FA6040;stop-opacity:0"/>
			<stop  offset="0.7183" style="stop-color:#FF6457;stop-opacity:0.16"/>
			<stop  offset="0.8239" style="stop-color:#ED7A74"/>
			<stop  offset="0.8651" style="stop-color:#ED4A30"/>
			<stop  offset="0.9991" style="stop-color:#DB5332"/>
			<stop  offset="1" style="stop-color:#F42E00"/>
		</radialGradient>
		<path id="path7360_25_" class="st14" d="M39.5-0.1C39.7-22,22.1-39.8,0.2-39.9c-21.8-0.1-39.7,17.4-39.8,39.3c0,0.2,0,0.3,0,0.5
			c-0.1,21.8,17.4,39.7,39.3,39.8c21.8,0.1,39.7-17.4,39.8-39.3C39.5,0.2,39.5,0,39.5-0.1z"/>
	</g>
	<g id="Green_3_">
		
			<radialGradient id="path7306_16_" cx="2603.2485" cy="-15466.1016" r="39.7815" gradientTransform="matrix(1.5041 -1.516393e-02 -1.136501e-02 -1.1275 -4104.9985 -17385.8691)" gradientUnits="userSpaceOnUse">
			<stop  offset="0" style="stop-color:#FFFFFF"/>
			<stop  offset="0.3449" style="stop-color:#FFFFFF"/>
			<stop  offset="0.5052" style="stop-color:#6CDF5B"/>
			<stop  offset="0.6395" style="stop-color:#2ED21B"/>
			<stop  offset="0.7521" style="stop-color:#4ACF32"/>
			<stop  offset="1" style="stop-color:#62EC71"/>
		</radialGradient>
		<path id="path7306_24_" class="st15" d="M39.2,0.7c0-21.8-17.7-39.4-39.4-39.4S-39.7-21.1-39.7,0.7S-22,40.1-0.2,40.1
			S39.2,22.5,39.2,0.7z"/>
		
			<radialGradient id="path7360_16_" cx="1532.0323" cy="-14844.8945" r="35.6301" gradientTransform="matrix(1.262 0 0 -1.2741 -1933.9871 -18913.8438)" gradientUnits="userSpaceOnUse">
			<stop  offset="0" style="stop-color:#5AB032;stop-opacity:0"/>
			<stop  offset="0.7183" style="stop-color:#75D900;stop-opacity:0.16"/>
			<stop  offset="0.8239" style="stop-color:#3FCF5D"/>
			<stop  offset="0.8651" style="stop-color:#00A538"/>
			<stop  offset="0.9991" style="stop-color:#00A23A"/>
			<stop  offset="0.9991" style="stop-color:#00A23D"/>
		</radialGradient>
		<path id="path7360_24_" class="st16" d="M39-0.1c0.1-21.8-17.4-39.7-39.3-39.8C-22.2-40-40-22.4-40.1-0.6c0,0.2,0,0.3,0,0.5
			c-0.1,21.8,17.4,39.7,39.3,39.8C21,39.9,38.8,22.3,39,0.4C39,0.3,39,0.1,39-0.1z"/>
	</g>
</symbol>
<use xlink:href="#Gold"  width="79.8" height="80.6" id="Pearl" x="-40.1" y="-40.5" transform="matrix(1 0 0 -1 40.4099 40.6123)" style="overflow:visible;"/>
</svg>
